<?xml version="1.0" standalone="no"?>
<!DOCTYPE svg PUBLIC "-//W3C//DTD SVG 20010904//EN"
 "http://www.w3.org/TR/2001/REC-SVG-20010904/DTD/svg10.dtd">
<svg version="1.0" xmlns="http://www.w3.org/2000/svg"
 width="92.000000pt" height="53.000000pt" viewBox="0 0 92.000000 53.000000"
 preserveAspectRatio="xMidYMid meet">

<g transform="translate(0.000000,53.000000) scale(0.100000,-0.100000)"
fill="#000000" stroke="none">
<path d="M96 499 c-14 -11 -26 -25 -26 -30 0 -6 -12 -20 -27 -33 -23 -20 -26
-30 -25 -78 1 -30 5 -65 10 -79 9 -24 9 -23 17 9 4 18 18 40 32 49 22 15 35
15 114 4 77 -11 98 -10 164 4 70 16 77 16 100 1 14 -9 32 -31 39 -49 l14 -32
2 60 c0 33 7 71 15 85 8 14 14 36 15 50 0 24 -2 25 -53 22 -29 -2 -101 6 -160
17 -140 27 -196 27 -231 0z"/>
<path d="M650 395 c0 -25 5 -45 10 -45 6 0 10 20 10 45 0 25 -4 45 -10 45 -5
0 -10 -20 -10 -45z"/>
<path d="M705 399 c0 -21 4 -38 10 -36 15 5 18 52 3 65 -10 8 -13 2 -13 -29z"/>
<path d="M749 404 c-16 -19 -1 -47 27 -52 19 -4 19 -3 0 11 -13 9 -17 21 -13
36 6 25 4 26 -14 5z"/>
<path d="M780 406 c0 -9 5 -16 10 -16 6 0 10 4 10 9 0 6 -4 13 -10 16 -5 3
-10 -1 -10 -9z"/>
<path d="M815 360 c-3 -5 -1 -10 4 -10 6 0 11 5 11 10 0 6 -2 10 -4 10 -3 0
-8 -4 -11 -10z"/>
<path d="M825 290 c3 -5 8 -10 11 -10 2 0 4 5 4 10 0 6 -5 10 -11 10 -5 0 -7
-4 -4 -10z"/>
<path d="M778 280 c-5 -17 3 -80 11 -80 7 0 6 79 -2 86 -3 3 -7 0 -9 -6z"/>
<path d="M645 260 c-3 -5 -1 -10 4 -10 6 0 11 5 11 10 0 6 -2 10 -4 10 -3 0
-8 -4 -11 -10z"/>
<path d="M676 248 c1 -13 3 -29 3 -35 1 -7 5 -13 9 -13 4 0 6 16 4 35 -2 19
-7 35 -11 35 -4 0 -7 -10 -5 -22z"/>
<path d="M715 235 c0 -19 5 -35 10 -35 7 0 9 15 7 35 -2 19 -7 35 -11 35 -3 0
-6 -16 -6 -35z"/>
<path d="M740 260 c0 -5 5 -10 10 -10 6 0 10 5 10 10 0 6 -4 10 -10 10 -5 0
-10 -4 -10 -10z"/>
<path d="M825 235 c0 -19 3 -35 8 -35 4 0 7 16 7 35 0 19 -3 35 -7 35 -5 0 -8
-16 -8 -35z"/>
<path d="M95 248 c-35 -19 -90 -81 -77 -86 7 -2 12 -13 12 -23 0 -33 29 -78
60 -94 69 -36 148 1 165 78 9 37 41 37 50 0 17 -77 96 -114 165 -78 31 16 60
61 60 94 0 10 6 21 13 24 15 5 -62 82 -93 92 -50 16 -140 -30 -140 -71 0 -9
-11 -14 -28 -14 -20 0 -30 7 -40 29 -22 49 -101 75 -147 49z m67 -41 c-3 -23
0 -28 15 -25 10 2 17 12 16 22 -1 17 1 17 20 -2 33 -34 28 -88 -11 -123 -18
-16 -41 -29 -52 -29 -51 0 -100 49 -100 101 0 31 64 91 92 87 19 -2 22 -8 20
-31z m272 3 c-5 -23 -3 -30 10 -30 10 0 16 9 16 23 1 21 1 21 25 -6 14 -15 25
-37 25 -48 0 -50 -49 -99 -100 -99 -11 0 -34 13 -52 29 -52 47 -39 125 27 152
42 17 55 11 49 -21z"/>
<path d="M90 200 c-11 -11 -20 -30 -19 -42 0 -22 1 -22 10 2 6 13 17 33 26 42
22 25 8 23 -17 -2z"/>
<path d="M640 215 c0 -8 7 -15 15 -15 9 0 12 6 9 15 -4 8 -10 15 -15 15 -5 0
-9 -7 -9 -15z"/>
<path d="M865 210 c-3 -5 -1 -10 4 -10 6 0 11 5 11 10 0 6 -2 10 -4 10 -3 0
-8 -4 -11 -10z"/>
<path d="M818 103 c6 -65 10 -70 11 -15 0 28 -3 52 -7 52 -4 0 -6 -17 -4 -37z"/>
<path d="M640 106 c0 -1 5 -18 11 -35 7 -20 15 -29 21 -23 10 10 -10 62 -24
62 -4 0 -8 -2 -8 -4z"/>
<path d="M692 95 c-1 -28 13 -61 20 -49 3 5 0 23 -7 39 -10 23 -13 25 -13 10z"/>
<path d="M749 94 c-16 -19 -1 -47 27 -52 19 -4 19 -3 0 11 -13 9 -17 21 -13
36 6 25 4 26 -14 5z"/>
<path d="M780 96 c0 -9 5 -16 10 -16 6 0 10 4 10 9 0 6 -4 13 -10 16 -5 3 -10
-1 -10 -9z"/>
<path d="M855 75 c0 -29 2 -32 14 -21 8 8 10 22 6 35 -10 32 -20 25 -20 -14z"/>
</g>
</svg>
